<?xml version="1.0" encoding="utf-8"?>
<!-- Generator: Adobe Illustrator 24.3.0, SVG Export Plug-In . SVG Version: 6.00 Build 0)  -->
<svg version="1.1" id="Layer_1" xmlns="http://www.w3.org/2000/svg" xmlns:xlink="http://www.w3.org/1999/xlink" x="0px" y="0px"
	 viewBox="0 0 1000 500" style="enable-background:new 0 0 1000 500;" xml:space="preserve">
<style type="text/css">
	.frame {
		stroke:#000000;
		stroke-miterlimit:10;
		stroke-dasharray: 1000;
  	stroke-dashoffset: 1000;
  	<!-- animation: frame 5s linear alternate infinite; -->
	}
	.lense {
		fill:#FFFFFF;
		stroke:#000000;
		stroke-miterlimit:10;
		stroke-dasharray: 1000;
  	stroke-dashoffset: 1000;
  	animation: lenses 5s linear alternate infinite;
	}
	.diamond {
		fill:#FFFFFF;
		stroke:#FFFFFF;
		stroke-miterlimit:10;
		stroke-dasharray: 1000;
  	stroke-dashoffset: 1000;
  	<!-- animation: diamonds 5s linear alternate infinite; -->
	}
	@keyframes frame {
		from {
			stroke-dashoffset: 1500;
			stroke: #B0B0B0;
			stroke-width: 5;
			fill: #FFFFFF;
		}
		to {
			stroke-dashoffset: 0;
		}
	}
	@keyframes lenses {
		from {
			stroke-dashoffset: 2000;
			stroke: #FFFFFF;
			stroke-width: 5;
			fill: #000000;
		}
		to {
			stroke-dashoffset: 0;
		}
	}
	@keyframes diamonds {
		from {
			stroke-dashoffset: 822;
			stroke: #B0B0B0;
			stroke-width: 1;
			fill: #000000;
		}
		to {
			stroke-dashoffset: 0;
		}
	}
</style>
<path class="frame" d="M39.32,126.7v73.87c0,0,29.17-3.16,40.38,45.99s26.73,124.6,81.92,139.26s164.69,9.92,205.65-3.45
	c40.96-13.37,51.74-27.16,66.83-68.55s30.61-84.93,30.61-84.93s3.45-21.56,33.63-21.56c30.18,0,35.35,20.26,35.35,20.26
	s33.2,97.44,40.1,108.65c6.9,11.21,16.38,43.11,86.66,52.17c70.28,9.05,162.54,9.48,203.5-15.09s61.22-143.57,61.22-143.57
	s3.02-23.71,34.49-29.75v-72.86c0,0-132.79-24.57-237.12-19.4s-162.11,21.13-162.11,21.13s-30.61,7.76-62.08,7.76
	s-39.66-3.45-54.75-6.9c-15.09-3.45-70.28-18.97-159.09-21.99C195.68,104.71,100.25,117.65,39.32,126.7z"/>
<path class="lense" d="M156.01,146.53c0,0-44.26,2.3-47.71,71.28s28.74,139.11,80.48,148.31c51.74,9.2,127.62,12.07,185.1-13.8
	c57.48-25.87,62.66-121.29,60.36-143.71s-1.15-56.91-91.4-67.83C252.59,129.86,156.01,146.53,156.01,146.53z"/>
<path class="lense" d="M844.87,146.53c0,0,44.26,2.3,47.71,71.28s-28.74,139.11-80.48,148.31c-51.74,9.2-127.62,12.07-185.1-13.8
	c-57.48-25.87-62.66-121.29-60.36-143.71s1.15-56.91,91.4-67.83C748.3,129.86,844.87,146.53,844.87,146.53z"/>
<polygon class="diamond" points="68.49,148.26 58.15,166.8 68.49,183.61 78.84,165.93 "/>
<polygon class="diamond" points="932.92,148.26 922.57,166.8 932.92,183.61 943.27,165.93 "/>
</svg>
